[IMG]http://www.collider.com/wp-content/image-base/Movies/A/AstroBoy_Movie/posters/Astro%20Boy%20movie%20poster.jpg[/IMG]

[IMG]http://nfomation.net/nfo.white/1255708555.voltage.nfo.png[/IMG]
                                                  [size=4][color=yellow]                 Proudly Presents!!![/color] [/size]

[color=orange] [b] ----------------------------------------------------------------------------------------------------------- [/b] [/color]
  [color=cyan]                                    Astroboy.2009.TS.XviD-VoLTaGE[/color]  
[color=orange] [b] ----------------------------------------------------------------------------------------------------------- [/b] [/color]

[color=white] [b]
Source...: Russian (ELEKTRI4KA) <thanks:::Audio IMAGINE thanks
Encoder..: DR.CARTER
Notes....: Done the usual work also it does look very smooth didnt really sharpen much
and the audio is left original uncompressed pcm as forgot to change it, been really busy
past few days but if any one wants it its here we dont expect everyone to like it.
enjoy another Voltage Release[/b] [/color]


[color=orange] [b] ----------------------------------------------------------------------------------------------------------- [/b] [/color]
                                        [color=cyan]    [b]                               Video      [/b]                                                            [/color]                   
[color=orange] [b] ----------------------------------------------------------------------------------------------------------- [/b] [/color]

[color=white] [b]
General
Complete name                    : Astroboy.2009.TS.XviD-VoLTaGE.avi
Format                           : AVI
Format/Info                      : Audio Video Interleave
File size                        : 1.74 GiB
Duration                         : 1h 24mn
Overall bit rate                 : 2 956 Kbps

Video
ID                               : 0
Format                           : MPEG-4 Visual
Format profile                   : AdvancedSimple@L5
Format settings, BVOP            : Yes
Format settings, QPel            : No
Format settings, GMC             : No warppoints
Format settings, Matrix          : Default (MPEG)
Muxing mode                      : Packed bitstream
Codec ID                         : XVID
Codec ID/Hint                    : XviD
Duration                         : 1h 24mn
Bit rate                         : 1 407 Kbps
Width                            : 704 pixels
Height                           : 272 pixels
Display aspect ratio             : 2.588
Frame rate                       : 25.000 fps
Resolution                       : 24 bits
Colorimetry                      : 4:2:0
Scan type                        : Progressive
Bits/(Pixel*Frame)               : 0.294
Stream size                      : 846 MiB (48%)
Writing library                  : XviD 1.2.1 (UTC 2008-12-04)
[/b] [/color]


[color=orange] [b] ----------------------------------------------------------------------------------------------------------- [/b] [/color]

                                        [color=cyan]    [b]                               Audio     [/b]                                                            [/color]                   
[color=orange] [b] ----------------------------------------------------------------------------------------------------------- [/b] [/color]
[color=white] [b]
Audio
Format                           : PCM
Format settings, Endianness      : Little
Format settings, Sign            : Unsigned
Codec ID                         : 1
Codec ID/Hint                    : Microsoft
Duration                         : 1h 24mn
Bit rate mode                    : Constant
Bit rate                         : 1 536 Kbps
Channel(s)                       : 2 channels
Sampling rate                    : 48.0 KHz
Resolution                       : 16 bits
Stream size                      : 924 MiB (52%)
Interleave, duration             : 40 ms (1.00 video frame)
Interleave, preload duration     : 479 ms
[/b] [/color]


[color=orange] [b] ----------------------------------------------------------------------------------------------------------- [/b] [/color]
                                        [color=cyan]    [b]                               IMDB      [/b]                                                            [/color]                   
[color=orange] [b] ----------------------------------------------------------------------------------------------------------- [/b] [/color]
[color=white] [b]

Director: David Bowers
Writers:Osamu Tezuka (comic series)Timothy Harris 
Release Date:15 October 2009 (Australia) more
Genre:Animation | Action | Family | Sci-Fi more
Tagline:Have a blast. more
Plot:Set in futuristic Metro City, Astro Boy is about a young robo
t with incredible powers created by a brilliant..

[/color][/b] 

[color=orange] [b] ----------------------------------------------------------------------------------------------------------- [/b] [/color]
                                        [color=cyan]    [b]                        Screens[/b]                                                            [/color]                   
[color=orange] [b] ----------------------------------------------------------------------------------------------------------- [/b] [/color] 

[color=orange] [b]
----------------------------------------------------------------------------------------------------------- [/b] [/color]
                                        [color=cyan]    [b]                         Greets   [/b]                                                            [/color]                   
[color=orange] [b] ----------------------------------------------------------------------------------------------------------- [/b] [/color] [color=white] [b]
Lynks | Satya | R-Lounge | Paulx1 | Mgsquirrel | PrisM | Flawl3ss | Medic | Fusion | IMAGINE |
STG | WhiiZz | Kitty | Vorny | TheGrim | W00t | giwrgoc | Santi | Devise | Prodji | Atom |
Jambo | [/b] [/color]

Enjoy